<svg width="25" height="22" viewBox="0 0 25 22" fill="none" xmlns="http://www.w3.org/2000/svg">
<path d="M4.31976 15.1199L6.64976 14.1199C6.88221 13.9598 7.07814 13.7522 7.22464 13.5109C7.37114 13.2696 7.4649 13.0001 7.49976 12.7199L7.86976 10.5199L11.0198 8.26994C11.1629 8.18287 11.2818 8.06124 11.3657 7.91622C11.4496 7.77119 11.4957 7.60742 11.4998 7.43994V6.85994C11.512 6.69075 11.4809 6.52124 11.4096 6.36734C11.3383 6.21344 11.2289 6.08023 11.0919 5.98022C10.9549 5.88021 10.7947 5.8167 10.6264 5.79566C10.4581 5.77462 10.2872 5.79674 10.1298 5.85994L5.90976 7.39994C4.85551 7.7727 3.87667 8.33155 3.01976 9.04994L1.24976 10.5199" stroke="white" stroke-width="1.5" stroke-linecap="round" stroke-linejoin="round"/>
<path d="M1.24976 20.7499L3.54976 19.0699C4.04034 18.702 4.63652 18.5021 5.24976 18.4999H12.9498C13.5546 18.501 14.1457 18.3191 14.6453 17.9783C15.145 17.6374 15.53 17.1535 15.7498 16.5899L17.1498 12.9999" stroke="white" stroke-width="1.5" stroke-linecap="round" stroke-linejoin="round"/>
<path d="M14.3298 8.58994C14.5457 8.87584 14.8277 9.10521 15.1516 9.25845C15.4755 9.41169 15.8317 9.48425 16.1898 9.46994C17.3298 9.46994 18.2498 8.77994 18.2498 7.91994C18.2498 7.05994 17.3298 6.37994 16.1898 6.37994C15.0498 6.37994 14.1198 5.67994 14.1198 4.82994C14.1198 3.97994 15.0498 3.27994 16.1898 3.27994C16.5478 3.26563 16.904 3.33819 17.2279 3.49143C17.5518 3.64467 17.8338 3.87404 18.0498 4.15994" stroke="white" stroke-width="1.5" stroke-linecap="round" stroke-linejoin="round"/>
<path d="M16.1898 9.46994V10.4999" stroke="white" stroke-width="1.5" stroke-linecap="round" stroke-linejoin="round"/>
<path d="M16.1898 2.24994V3.27994" stroke="white" stroke-width="1.5" stroke-linecap="round" stroke-linejoin="round"/>
<path d="M19.7498 1.24994H22.2498C22.6476 1.24994 23.0291 1.40797 23.3104 1.68928C23.5917 1.97058 23.7498 2.35211 23.7498 2.74994V11.4999C23.7498 11.8978 23.5917 12.2793 23.3104 12.5606C23.0291 12.8419 22.6476 12.9999 22.2498 12.9999H10.9998" stroke="white" stroke-width="1.5" stroke-linecap="round" stroke-linejoin="round"/>
<path d="M5.74976 4.24994V2.74994C5.74976 2.35211 5.90779 1.97058 6.1891 1.68928C6.4704 1.40797 6.85193 1.24994 7.24976 1.24994H12.9998" stroke="white" stroke-width="1.5" stroke-linecap="round" stroke-linejoin="round"/>
</svg>
